<svg width="36" height="36" viewBox="0 0 36 36" fill="none" xmlns="http://www.w3.org/2000/svg">
<rect width="36" height="36" rx="18" fill="#703BF7"/>
<path d="M25.8565 10.1485C25.4398 9.72271 24.8232 9.56521 24.2482 9.73187L10.8398 13.606C10.2332 13.7744 9.80318 14.2552 9.68734 14.8652C9.56901 15.4869 9.98234 16.2769 10.5223 16.6069L14.7148 19.1669C15.1448 19.4302 15.6998 19.3644 16.0557 19.0077L20.8565 14.2069C21.0982 13.956 21.4982 13.956 21.7398 14.2069C21.9815 14.4477 21.9815 14.8402 21.7398 15.0902L16.9307 19.891C16.574 20.2477 16.5073 20.801 16.7698 21.2319L19.3315 25.4402C19.6315 25.9394 20.1482 26.2235 20.7148 26.2235C20.7815 26.2235 20.8565 26.2235 20.9232 26.2144C21.5732 26.1319 22.0898 25.6894 22.2815 25.0644L26.2565 11.7569C26.4315 11.1902 26.2732 10.5735 25.8565 10.1485Z" fill="white"/>
<path opacity="0.4" d="M15.877 23.9519C16.1203 24.196 16.1203 24.5919 15.877 24.836L14.7386 25.9735C14.617 26.096 14.457 26.1569 14.297 26.1569C14.137 26.1569 13.977 26.096 13.8553 25.9735C13.6111 25.7294 13.6111 25.3344 13.8553 25.0902L14.9928 23.9519C15.237 23.7085 15.6328 23.7085 15.877 23.9519ZM15.2239 20.7952C15.4672 21.0394 15.4672 21.4352 15.2239 21.6794L14.0856 22.8169C13.9639 22.9394 13.8039 23.0002 13.6439 23.0002C13.4839 23.0002 13.3239 22.9394 13.2022 22.8169C12.9581 22.5727 12.9581 22.1777 13.2022 21.9335L14.3397 20.7952C14.5839 20.5519 14.9797 20.5519 15.2239 20.7952ZM12.0896 19.8015C12.3329 20.0457 12.3329 20.4415 12.0896 20.6857L10.9512 21.8232C10.8296 21.9457 10.6696 22.0065 10.5096 22.0065C10.3496 22.0065 10.1896 21.9457 10.0679 21.8232C9.82372 21.579 9.82372 21.184 10.0679 20.9399L11.2054 19.8015C11.4496 19.5582 11.8454 19.5582 12.0896 19.8015Z" fill="white"/>
</svg>
