<svg width="60" height="40" viewBox="0 0 60 40" fill="none" xmlns="http://www.w3.org/2000/svg">
<rect width="60" height="40" rx="20" fill="#703BF7"/>
<path d="M26.2918 28.125C33.8371 28.125 37.9652 21.8723 37.9652 16.4516C37.9652 16.2758 37.9613 16.0961 37.9535 15.9203C38.7566 15.3396 39.4496 14.6202 40 13.7961C39.2521 14.1288 38.458 14.3462 37.6449 14.4406C38.5011 13.9274 39.1421 13.1212 39.4492 12.1715C38.6438 12.6488 37.763 12.9855 36.8445 13.1672C36.2257 12.5096 35.4075 12.0743 34.5164 11.9284C33.6253 11.7825 32.711 11.9342 31.9148 12.3601C31.1186 12.786 30.4848 13.4623 30.1115 14.2844C29.7382 15.1066 29.6462 16.0288 29.8496 16.9086C28.2187 16.8267 26.6233 16.4031 25.1667 15.6651C23.71 14.9271 22.4247 13.8912 21.3941 12.6246C20.8703 13.5277 20.71 14.5964 20.9459 15.6134C21.1817 16.6304 21.7959 17.5195 22.6637 18.1C22.0122 18.0793 21.375 17.9039 20.8047 17.5883V17.6391C20.8041 18.5868 21.1317 19.5055 21.7319 20.239C22.3321 20.9725 23.1678 21.4755 24.0969 21.6625C23.4934 21.8276 22.86 21.8517 22.2457 21.7328C22.5079 22.5479 23.018 23.2607 23.7048 23.7719C24.3916 24.2831 25.2209 24.5672 26.077 24.5844C24.6237 25.7259 22.8285 26.3451 20.9805 26.3422C20.6527 26.3417 20.3253 26.3216 20 26.282C21.8774 27.4865 24.0613 28.1262 26.2918 28.125Z" fill="white"/>
</svg>
